<svg xmlns="http://www.w3.org/2000/svg" id="Layer_1" viewBox="0 0 30 30"><style>.st0{fill:#402c76}</style><path d="M15.1 17.2c.9 0 1.6.5 1.6 1 0 .4.3.7.7.7.4 0 .7-.4.7-.7 0-1.1-1.2-2-2.4-2.3v-.3c0-.4-.4-.7-.8-.7s-.9.4-.9.7v.2c-1.2.2-2.1 1.1-2.1 2.3 0 1.3 1.6 2.3 3.3 2.3.9 0 1.6.5 1.6 1s-.7 1-1.7 1-1.7-.5-1.7-1-.4-.7-.8-.7-.8.4-.8.7c0 1.1.8 2 2 2.3v.3c0 .4.5.7.9.7s.9-.4.9-.7v-.3c1.2-.2 2.4-1.1 2.4-2.3 0-1.3-1.2-2.3-2.9-2.3-1 0-1.6-.5-1.6-.9 0-.5.6-1 1.6-1zM11.7 5.8l.2.5c.1.2.2.3.4.3h5.6c.2 0 .4-.1.5-.4l.1-.4 1-4.6a2 2 0 0 0-.3-1c-.2-.2-.6-.2-1-.2l-2.5.8h-1.5L11.6 0c-.4-.1-.8 0-1 .2-.2.2-.3.6-.2 1l1.3 4.6z" class="st0"/><path d="M20.7 10.4c-1.3-1.1-2.4-2.1-2.4-2.9v-.1c0-.2-.2-.4-.5-.4h-5.6c-.2 0-.4.1-.5.4v.1c0 .8-1.1 1.8-2.4 2.9-2.6 2.3-6.1 5.4-6.1 11.1.1 4.1 3.2 8.4 9.9 8.4h3.8c9.1.2 9.8-8 9.8-8v-.4c.1-5.7-3.5-8.8-6-11.1zm-5.6 16.4c-3.8 0-7-3.2-7-7s3.1-7 7-7 7 3.1 7 7-3.2 7-7 7z" class="st0"/></svg>