<svg xmlns="http://www.w3.org/2000/svg" viewBox="0 0 74.6 50"><linearGradient id="a" gradientUnits="userSpaceOnUse" x1="5.822" y1="16.618" x2="22.03" y2="16.618"><stop offset="0" stop-color="#662d91"/><stop offset="1" stop-color="#262261"/></linearGradient><path d="M22 17.2c0-.2-.1-.5-.2-.6l-6.9-7.8c-.2-.2-.4-.3-.6-.3-.2 0-.5.1-.6.2-3.2 2.8-5.8 6-7.8 9.7-.1.2-.1.4-.1.7.1.2.2.4.4.5l9.1 5c.1.1.3.1.4.1.3 0 .6-.2.8-.5 1.3-2.4 3.1-4.6 5.2-6.4.2-.1.3-.3.3-.6z" opacity=".6" fill="url(#a)"/><linearGradient id="b" gradientUnits="userSpaceOnUse" x1="20.116" y1="7.484" x2="34.845" y2="7.484"><stop offset="0" stop-color="#662d91"/><stop offset="1" stop-color="#262261"/></linearGradient><path d="M25.1 14.4c.2.3.5.5.8.5.1 0 .3 0 .4-.1 2.4-1.3 5.1-2.1 7.8-2.5.5-.1.8-.5.7-1L33.4.9c-.1-.5-.5-.8-1-.7C28.3.7 24.3 2 20.6 4c-.4.2-.6.7-.4 1.2l4.9 9.2z" opacity=".7" fill="url(#b)"/><linearGradient id="c" gradientUnits="userSpaceOnUse" x1="1.568" y1="31.811" x2="14.562" y2="31.811"><stop offset="0" stop-color="#662d91"/><stop offset="1" stop-color="#262261"/></linearGradient><path d="M13.9 28.3l-10-2.7c-.2-.1-.5 0-.7.1-.2.1-.3.3-.4.5-.8 3-1.2 6.2-1.2 9.4v1.7c0 .5.4.8.9.8l10.4-.5c.2 0 .4-.1.6-.3.2-.2.2-.4.2-.6v-1.1c0-2.1.3-4.2.8-6.2.2-.5-.1-1-.6-1.1z" opacity=".5" fill="url(#c)"/><linearGradient id="d" gradientUnits="userSpaceOnUse" x1="38.828" y1="7.195" x2="53.294" y2="7.195"><stop offset="0" stop-color="#662d91"/><stop offset="1" stop-color="#262261"/></linearGradient><path d="M52.8 3.4C49 1.5 45 .4 40.8 0c-.2 0-.5 0-.6.2-.2.1-.3.4-.3.6l-1 10.4c0 .5.3.9.8.9 2.8.3 5.4 1 7.9 2.2.1.1.2.1.4.1h.3c.2-.1.4-.2.5-.4l4.5-9.4c.1-.5-.1-1-.5-1.2z" opacity=".8" fill="url(#d)"/><linearGradient id="e" gradientUnits="userSpaceOnUse" x1="51.855" y1="15.777" x2="68.117" y2="15.777"><stop offset="0" stop-color="#662d91"/><stop offset="1" stop-color="#262261"/></linearGradient><path d="M68.1 17.9c.1-.2 0-.5-.1-.7-2.2-3.6-4.9-6.8-8.2-9.4-.2-.1-.4-.2-.6-.2-.2 0-.4.1-.6.3L52 16c-.1.2-.2.4-.2.6 0 .2.1.4.3.6 2.2 1.8 4 3.9 5.4 6.2.2.3.5.4.7.4.2 0 .3 0 .4-.1l8.9-5.3c.4-.1.5-.3.6-.5z" opacity=".9" fill="url(#e)"/><linearGradient id="f" gradientUnits="userSpaceOnUse" x1="59.78" y1="31.167" x2="73.037" y2="31.167"><stop offset="0" stop-color="#662d91"/><stop offset="1" stop-color="#262261"/></linearGradient><path d="M71.4 24.9c-.1-.5-.6-.7-1.1-.6l-9.9 3.1c-.5.1-.7.6-.6 1.1.7 2.3 1.1 4.7 1.1 7.1v1.1c0 .2.1.5.2.6.2.2.4.3.6.3l10.4.5c.5 0 .8-.4.9-.8v-1.7c0-3.7-.5-7.3-1.6-10.7z" fill="url(#f)"/><linearGradient id="g" gradientUnits="userSpaceOnUse" x1="21.389" y1="37.653" x2="45.407" y2="37.653"><stop offset="0" stop-color="#662d91"/><stop offset="1" stop-color="#262261"/></linearGradient><path d="M37.3 33.7h-.4l-14.1-8.3c-.3-.2-.8-.2-1.1.1-.3.3-.4.7-.2 1.1L29.2 41v.8c0 2.2.8 4.2 2.4 5.8 1.5 1.5 3.6 2.4 5.8 2.4s4.2-.8 5.8-2.4c1.5-1.5 2.4-3.6 2.4-5.8 0-2.2-.8-4.2-2.4-5.8-1.7-1.4-3.8-2.3-5.9-2.3z" fill="url(#g)"/></svg>